<?xml version="1.0" encoding="UTF-8"?>
<!DOCTYPE svg PUBLIC "-//W3C//DTD SVG 1.1//EN" "http://www.w3.org/Graphics/SVG/1.1/DTD/svg11.dtd">
<svg version="1.2" width="210mm" height="297mm" viewBox="0 0 21000 29700" preserveAspectRatio="xMidYMid" fill-rule="evenodd" clip-path="url(#presentation_clip_path)" stroke-width="28.222" stroke-linejoin="round" xmlns="http://www.w3.org/2000/svg" xmlns:ooo="http://xml.openoffice.org/svg/export" xmlns:xlink="http://www.w3.org/1999/xlink" xml:space="preserve">
 <defs class="ClipPathGroup">
  <clipPath id="presentation_clip_path" clipPathUnits="userSpaceOnUse">
   <rect x="0" y="0" width="21000" height="29700"/>
  </clipPath>
 </defs>
 <defs class="TextShapeIndex">
  <g ooo:slide="id1" ooo:id-list="id3 id4 id5 id6 id7 id8 id9 id10 id11 id12 id13 id14 id15 id16 id17 id18 id19 id20 id21 id22 id23 id24 id25 id26 id27 id28 id29 id30 id31 id32 id33 id34 id35 id36 id37 id38 id39 id40 id41 id42 id43 id44 id45"/>
 </defs>
 <defs class="EmbeddedBulletChars">
  <g id="bullet-char-template(57356)" transform="scale(0.00048828125,-0.00048828125)">
   <path d="M 580,1141 L 1163,571 580,0 -4,571 580,1141 Z"/>
  </g>
  <g id="bullet-char-template(57354)" transform="scale(0.00048828125,-0.00048828125)">
   <path d="M 8,1128 L 1137,1128 1137,0 8,0 8,1128 Z"/>
  </g>
  <g id="bullet-char-template(10146)" transform="scale(0.00048828125,-0.00048828125)">
   <path d="M 174,0 L 602,739 174,1481 1456,739 174,0 Z M 1358,739 L 309,1346 659,739 1358,739 Z"/>
  </g>
  <g id="bullet-char-template(10132)" transform="scale(0.00048828125,-0.00048828125)">
   <path d="M 2015,739 L 1276,0 717,0 1260,543 174,543 174,936 1260,936 717,1481 1274,1481 2015,739 Z"/>
  </g>
  <g id="bullet-char-template(10007)" transform="scale(0.00048828125,-0.00048828125)">
   <path d="M 0,-2 C -7,14 -16,27 -25,37 L 356,567 C 262,823 215,952 215,954 215,979 228,992 255,992 264,992 276,990 289,987 310,991 331,999 354,1012 L 381,999 492,748 772,1049 836,1024 860,1049 C 881,1039 901,1025 922,1006 886,937 835,863 770,784 769,783 710,716 594,584 L 774,223 C 774,196 753,168 711,139 L 727,119 C 717,90 699,76 672,76 641,76 570,178 457,381 L 164,-76 C 142,-110 111,-127 72,-127 30,-127 9,-110 8,-76 1,-67 -2,-52 -2,-32 -2,-23 -1,-13 0,-2 Z"/>
  </g>
  <g id="bullet-char-template(10004)" transform="scale(0.00048828125,-0.00048828125)">
   <path d="M 285,-33 C 182,-33 111,30 74,156 52,228 41,333 41,471 41,549 55,616 82,672 116,743 169,778 240,778 293,778 328,747 346,684 L 369,508 C 377,444 397,411 428,410 L 1163,1116 C 1174,1127 1196,1133 1229,1133 1271,1133 1292,1118 1292,1087 L 1292,965 C 1292,929 1282,901 1262,881 L 442,47 C 390,-6 338,-33 285,-33 Z"/>
  </g>
  <g id="bullet-char-template(9679)" transform="scale(0.00048828125,-0.00048828125)">
   <path d="M 813,0 C 632,0 489,54 383,161 276,268 223,411 223,592 223,773 276,916 383,1023 489,1130 632,1184 813,1184 992,1184 1136,1130 1245,1023 1353,916 1407,772 1407,592 1407,412 1353,268 1245,161 1136,54 992,0 813,0 Z"/>
  </g>
  <g id="bullet-char-template(8226)" transform="scale(0.00048828125,-0.00048828125)">
   <path d="M 346,457 C 273,457 209,483 155,535 101,586 74,649 74,723 74,796 101,859 155,911 209,963 273,989 346,989 419,989 480,963 531,910 582,859 608,796 608,723 608,648 583,586 532,535 482,483 420,457 346,457 Z"/>
  </g>
  <g id="bullet-char-template(8211)" transform="scale(0.00048828125,-0.00048828125)">
   <path d="M -4,459 L 1135,459 1135,606 -4,606 -4,459 Z"/>
  </g>
 </defs>
 <defs class="TextEmbeddedBitmaps"/>
 <g>
  <g id="id2" class="Master_Slide">
   <g id="bg-id2" class="Background"/>
   <g id="bo-id2" class="BackgroundObjects"/>
  </g>
 </g>
 <g class="SlideGroup">
  <g>
   <g id="id1" class="Slide" clip-path="url(#presentation_clip_path)">
    <g class="Page">
     <g class="com.sun.star.drawing.TextShape">
      <g id="id3">
       <text class="TextShape"><tspan class="TextParagraph" font-family="Arial, sans-serif" font-size="635px" font-weight="400"><tspan class="TextPosition" x="4750" y="2101"><tspan fill="rgb(0,0,0)" stroke="none">Proceso Agregar coordenadas con el mouse</tspan></tspan></tspan></text>
      </g>
     </g>
     <g class="com.sun.star.drawing.CustomShape">
      <g id="id4">
       <path fill="rgb(114,159,207)" stroke="none" d="M 2600,10751 L 4850,9101 7101,10751 4850,12402 2600,10751 2600,10751 Z M 2600,9101 L 2600,9101 Z M 7101,12402 L 7101,12402 Z"/>
       <path fill="none" stroke="rgb(52,101,175)" d="M 2600,10751 L 4850,9101 7101,10751 4850,12402 2600,10751 2600,10751 Z"/>
       <path fill="none" stroke="rgb(52,101,175)" d="M 2600,9101 L 2600,9101 Z"/>
       <path fill="none" stroke="rgb(52,101,175)" d="M 7101,12402 L 7101,12402 Z"/>
       <text class="TextShape"><tspan class="TextParagraph" font-family="Arial, sans-serif" font-size="318px" font-weight="400"><tspan class="TextPosition" x="3650" y="10327"><tspan fill="rgb(0,0,0)" stroke="none">Si el puntero del </tspan></tspan></tspan><tspan class="TextParagraph" font-family="Arial, sans-serif" font-size="318px" font-weight="400"><tspan class="TextPosition" x="3402" y="10683"><tspan fill="rgb(0,0,0)" stroke="none">mouse se encuentra</tspan></tspan></tspan><tspan class="TextParagraph" font-family="Arial, sans-serif" font-size="318px" font-weight="400"><tspan class="TextPosition" x="3294" y="11039"><tspan fill="rgb(0,0,0)" stroke="none"> </tspan><tspan fill="rgb(0,0,0)" stroke="none">dentro del cuadro de </tspan></tspan></tspan><tspan class="TextParagraph" font-family="Arial, sans-serif" font-size="318px" font-weight="400"><tspan class="TextPosition" x="3953" y="11395"><tspan fill="rgb(0,0,0)" stroke="none">Graficacion. </tspan></tspan></tspan></text>
      </g>
     </g>
     <g class="com.sun.star.drawing.CustomShape">
      <g id="id5">
       <path fill="rgb(114,159,207)" stroke="none" d="M 2400,6051 L 4650,4401 6901,6051 4650,7702 2400,6051 2400,6051 Z M 2400,4401 L 2400,4401 Z M 6901,7702 L 6901,7702 Z"/>
       <path fill="none" stroke="rgb(52,101,175)" d="M 2400,6051 L 4650,4401 6901,6051 4650,7702 2400,6051 2400,6051 Z"/>
       <path fill="none" stroke="rgb(52,101,175)" d="M 2400,4401 L 2400,4401 Z"/>
       <path fill="none" stroke="rgb(52,101,175)" d="M 6901,7702 L 6901,7702 Z"/>
       <text class="TextShape"><tspan class="TextParagraph" font-family="Arial, sans-serif" font-size="318px" font-weight="400"><tspan class="TextPosition" x="3672" y="5983"><tspan fill="rgb(0,0,0)" stroke="none">Si se produce</tspan></tspan></tspan><tspan class="TextParagraph" font-family="Arial, sans-serif" font-size="318px" font-weight="400"><tspan class="TextPosition" x="3060" y="6339"><tspan fill="rgb(0,0,0)" stroke="none"> </tspan><tspan fill="rgb(0,0,0)" stroke="none">el evento “Mouse_up”</tspan></tspan></tspan></text>
      </g>
     </g>
     <g class="com.sun.star.drawing.CustomShape">
      <g id="id6">
       <path fill="rgb(114,159,207)" stroke="none" d="M 2200,13901 L 7601,13901 7601,14902 2200,14902 2200,13901 2200,13901 Z M 2200,13901 L 2200,13901 Z M 7601,14902 L 7601,14902 Z"/>
       <path fill="none" stroke="rgb(52,101,175)" d="M 2200,13901 L 7601,13901 7601,14902 2200,14902 2200,13901 2200,13901 Z"/>
       <path fill="none" stroke="rgb(52,101,175)" d="M 2200,13901 L 2200,13901 Z"/>
       <path fill="none" stroke="rgb(52,101,175)" d="M 7601,14902 L 7601,14902 Z"/>
       <text class="TextShape"><tspan class="TextParagraph" font-family="Arial, sans-serif" font-size="318px" font-weight="400"><tspan class="TextPosition" x="2779" y="14333"><tspan fill="rgb(0,0,0)" stroke="none">Extraer coordenadas “X” y “Y”</tspan></tspan></tspan><tspan class="TextParagraph" font-family="Arial, sans-serif" font-size="318px" font-weight="400"><tspan class="TextPosition" x="4119" y="14689"><tspan fill="rgb(0,0,0)" stroke="none">del mouse.</tspan></tspan></tspan></text>
      </g>
     </g>
     <g class="com.sun.star.drawing.CustomShape">
      <g id="id7">
       <path fill="rgb(114,159,207)" stroke="none" d="M 6500,16601 L 9801,16601 9801,17202 6500,17202 6500,16601 Z M 6500,16601 L 6500,16601 Z M 9801,17202 L 9801,17202 Z"/>
       <path fill="none" stroke="rgb(52,101,175)" d="M 6500,16601 L 9801,16601 9801,17202 6500,17202 6500,16601 Z"/>
       <path fill="none" stroke="rgb(52,101,175)" d="M 6500,16601 L 6500,16601 Z"/>
       <path fill="none" stroke="rgb(52,101,175)" d="M 9801,17202 L 9801,17202 Z"/>
       <path fill="rgb(114,159,207)" stroke="none" d="M 7146,16601 L 7146,17202 7146,16601 Z M 6500,16601 L 6500,16601 Z M 9801,17202 L 9801,17202 Z"/>
       <path fill="none" stroke="rgb(52,101,175)" d="M 7146,16601 L 7146,17202"/>
       <path fill="none" stroke="rgb(52,101,175)" d="M 6500,16601 L 6500,16601 Z"/>
       <path fill="none" stroke="rgb(52,101,175)" d="M 9801,17202 L 9801,17202 Z"/>
       <path fill="rgb(114,159,207)" stroke="none" d="M 6500,16718 L 9801,16718 6500,16718 Z M 6500,16601 L 6500,16601 Z M 9801,17202 L 9801,17202 Z"/>
       <path fill="none" stroke="rgb(52,101,175)" d="M 6500,16718 L 9801,16718"/>
       <path fill="none" stroke="rgb(52,101,175)" d="M 6500,16601 L 6500,16601 Z"/>
       <path fill="none" stroke="rgb(52,101,175)" d="M 9801,17202 L 9801,17202 Z"/>
       <text class="TextShape"><tspan class="TextParagraph" font-family="Arial, sans-serif" font-size="318px" font-weight="400"><tspan class="TextPosition" x="7845" y="17070"><tspan fill="rgb(0,0,0)" stroke="none">Mouse.X</tspan></tspan></tspan></text>
      </g>
     </g>
     <g class="com.sun.star.drawing.CustomShape">
      <g id="id8">
       <path fill="rgb(114,159,207)" stroke="none" d="M 6500,17801 L 9801,17801 9801,18402 6500,18402 6500,17801 Z M 6500,17801 L 6500,17801 Z M 9801,18402 L 9801,18402 Z"/>
       <path fill="none" stroke="rgb(52,101,175)" d="M 6500,17801 L 9801,17801 9801,18402 6500,18402 6500,17801 Z"/>
       <path fill="none" stroke="rgb(52,101,175)" d="M 6500,17801 L 6500,17801 Z"/>
       <path fill="none" stroke="rgb(52,101,175)" d="M 9801,18402 L 9801,18402 Z"/>
       <path fill="rgb(114,159,207)" stroke="none" d="M 7146,17801 L 7146,18402 7146,17801 Z M 6500,17801 L 6500,17801 Z M 9801,18402 L 9801,18402 Z"/>
       <path fill="none" stroke="rgb(52,101,175)" d="M 7146,17801 L 7146,18402"/>
       <path fill="none" stroke="rgb(52,101,175)" d="M 6500,17801 L 6500,17801 Z"/>
       <path fill="none" stroke="rgb(52,101,175)" d="M 9801,18402 L 9801,18402 Z"/>
       <path fill="rgb(114,159,207)" stroke="none" d="M 6500,17918 L 9801,17918 6500,17918 Z M 6500,17801 L 6500,17801 Z M 9801,18402 L 9801,18402 Z"/>
       <path fill="none" stroke="rgb(52,101,175)" d="M 6500,17918 L 9801,17918"/>
       <path fill="none" stroke="rgb(52,101,175)" d="M 6500,17801 L 6500,17801 Z"/>
       <path fill="none" stroke="rgb(52,101,175)" d="M 9801,18402 L 9801,18402 Z"/>
       <text class="TextShape"><tspan class="TextParagraph" font-family="Arial, sans-serif" font-size="318px" font-weight="400"><tspan class="TextPosition" x="7845" y="18270"><tspan fill="rgb(0,0,0)" stroke="none">Mouse.Y</tspan></tspan></tspan></text>
      </g>
     </g>
     <g class="com.sun.star.drawing.CustomShape">
      <g id="id9">
       <path fill="rgb(114,159,207)" stroke="none" d="M 4900,17201 C 5183,17201 5400,17396 5400,17651 5400,17906 5183,18101 4900,18101 4617,18101 4400,17906 4400,17651 4400,17396 4617,17201 4900,17201 Z M 4400,17201 L 4400,17201 Z M 5401,18102 L 5401,18102 Z"/>
       <path fill="none" stroke="rgb(52,101,175)" d="M 4900,17201 C 5183,17201 5400,17396 5400,17651 5400,17906 5183,18101 4900,18101 4617,18101 4400,17906 4400,17651 4400,17396 4617,17201 4900,17201 Z"/>
       <path fill="none" stroke="rgb(52,101,175)" d="M 4400,17201 L 4400,17201 Z"/>
       <path fill="none" stroke="rgb(52,101,175)" d="M 5401,18102 L 5401,18102 Z"/>
       <path fill="rgb(114,159,207)" stroke="none" d="M 4543,17330 L 5257,17972 4543,17330 Z M 4400,17201 L 4400,17201 Z M 5401,18102 L 5401,18102 Z"/>
       <path fill="none" stroke="rgb(52,101,175)" d="M 4543,17330 L 5257,17972"/>
       <path fill="none" stroke="rgb(52,101,175)" d="M 4400,17201 L 4400,17201 Z"/>
       <path fill="none" stroke="rgb(52,101,175)" d="M 5401,18102 L 5401,18102 Z"/>
       <path fill="rgb(114,159,207)" stroke="none" d="M 4543,17972 L 5257,17330 4543,17972 Z M 4400,17201 L 4400,17201 Z M 5401,18102 L 5401,18102 Z"/>
       <path fill="none" stroke="rgb(52,101,175)" d="M 4543,17972 L 5257,17330"/>
       <path fill="none" stroke="rgb(52,101,175)" d="M 4400,17201 L 4400,17201 Z"/>
       <path fill="none" stroke="rgb(52,101,175)" d="M 5401,18102 L 5401,18102 Z"/>
      </g>
     </g>
     <g class="com.sun.star.drawing.ConnectorShape">
      <g id="id10">
       <path fill="none" stroke="rgb(0,0,0)" d="M 5254,17332 L 6094,17042"/>
       <path fill="rgb(0,0,0)" stroke="none" d="M 6500,16901 L 6026,16906 6124,17190 6500,16901 Z"/>
      </g>
     </g>
     <g class="com.sun.star.drawing.ConnectorShape">
      <g id="id11">
       <path fill="none" stroke="rgb(0,0,0)" d="M 5254,17970 L 6072,18056"/>
       <path fill="rgb(0,0,0)" stroke="none" d="M 6500,18101 L 6068,17905 6037,18203 6500,18101 Z"/>
      </g>
     </g>
     <g class="com.sun.star.drawing.ConnectorShape">
      <g id="id12">
       <path fill="none" stroke="rgb(0,0,0)" d="M 6900,6051 L 7402,6051 7402,8001 4850,8001 4850,8671"/>
       <path fill="rgb(0,0,0)" stroke="none" d="M 4850,9101 L 5000,8651 4700,8651 4850,9101 Z"/>
      </g>
     </g>
     <g class="com.sun.star.drawing.ConnectorShape">
      <g id="id13">
       <path fill="none" stroke="rgb(0,0,0)" d="M 7100,10751 L 7602,10751 7602,12601 4900,12601 4900,13471"/>
       <path fill="rgb(0,0,0)" stroke="none" d="M 4900,13901 L 5050,13451 4750,13451 4900,13901 Z"/>
      </g>
     </g>
     <g class="com.sun.star.drawing.ConnectorShape">
      <g id="id14">
       <path fill="none" stroke="rgb(0,0,0)" d="M 4900,14901 L 4900,16771"/>
       <path fill="rgb(0,0,0)" stroke="none" d="M 4900,17201 L 5050,16751 4750,16751 4900,17201 Z"/>
      </g>
     </g>
     <g class="com.sun.star.drawing.ConnectorShape">
      <g id="id15">
       <path fill="none" stroke="rgb(0,0,0)" d="M 4900,18101 L 4871,18672"/>
       <path fill="rgb(0,0,0)" stroke="none" d="M 4850,19101 L 5022,18659 4723,18644 4850,19101 Z"/>
      </g>
     </g>
     <g class="com.sun.star.drawing.CustomShape">
      <g id="id16">
       <path fill="rgb(114,159,207)" stroke="none" d="M 4850,19101 C 5162,19101 5400,19318 5400,19601 5400,19884 5162,20101 4850,20101 4538,20101 4300,19884 4300,19601 4300,19318 4538,19101 4850,19101 Z M 4300,19101 L 4300,19101 Z M 5401,20102 L 5401,20102 Z"/>
       <path fill="none" stroke="rgb(52,101,175)" d="M 4850,19101 C 5162,19101 5400,19318 5400,19601 5400,19884 5162,20101 4850,20101 4538,20101 4300,19884 4300,19601 4300,19318 4538,19101 4850,19101 Z"/>
       <path fill="none" stroke="rgb(52,101,175)" d="M 4300,19101 L 4300,19101 Z"/>
       <path fill="none" stroke="rgb(52,101,175)" d="M 5401,20102 L 5401,20102 Z"/>
       <text class="TextShape"><tspan class="TextParagraph" font-family="Arial, sans-serif" font-size="635px" font-weight="400"><tspan class="TextPosition" x="4674" y="19822"><tspan fill="rgb(0,0,0)" stroke="none">2</tspan></tspan></tspan></text>
      </g>
     </g>
     <g class="com.sun.star.drawing.CustomShape">
      <g id="id17">
       <path fill="rgb(114,159,207)" stroke="none" d="M 14350,5101 C 14662,5101 14900,5318 14900,5601 14900,5884 14662,6101 14350,6101 14038,6101 13800,5884 13800,5601 13800,5318 14038,5101 14350,5101 Z M 13800,5101 L 13800,5101 Z M 14901,6102 L 14901,6102 Z"/>
       <path fill="none" stroke="rgb(52,101,175)" d="M 14350,5101 C 14662,5101 14900,5318 14900,5601 14900,5884 14662,6101 14350,6101 14038,6101 13800,5884 13800,5601 13800,5318 14038,5101 14350,5101 Z"/>
       <path fill="none" stroke="rgb(52,101,175)" d="M 13800,5101 L 13800,5101 Z"/>
       <path fill="none" stroke="rgb(52,101,175)" d="M 14901,6102 L 14901,6102 Z"/>
       <text class="TextShape"><tspan class="TextParagraph" font-family="Arial, sans-serif" font-size="635px" font-weight="400"><tspan class="TextPosition" x="14174" y="5822"><tspan fill="rgb(0,0,0)" stroke="none">2</tspan></tspan></tspan></text>
      </g>
     </g>
     <g class="com.sun.star.drawing.CustomShape">
      <g id="id18">
       <path fill="rgb(114,159,207)" stroke="none" d="M 12100,8851 L 14350,7201 16601,8851 14350,10502 12100,8851 12100,8851 Z M 12100,7201 L 12100,7201 Z M 16601,10502 L 16601,10502 Z"/>
       <path fill="none" stroke="rgb(52,101,175)" d="M 12100,8851 L 14350,7201 16601,8851 14350,10502 12100,8851 12100,8851 Z"/>
       <path fill="none" stroke="rgb(52,101,175)" d="M 12100,7201 L 12100,7201 Z"/>
       <path fill="none" stroke="rgb(52,101,175)" d="M 16601,10502 L 16601,10502 Z"/>
       <text class="TextShape"><tspan class="TextParagraph" font-family="Arial, sans-serif" font-size="318px" font-weight="400"><tspan class="TextPosition" x="13078" y="8427"><tspan fill="rgb(0,0,0)" stroke="none">SI.(Mouse.X &gt; 0 y</tspan></tspan></tspan><tspan class="TextParagraph" font-family="Arial, sans-serif" font-size="318px" font-weight="400"><tspan class="TextPosition" x="12930" y="8783"><tspan fill="rgb(0,0,0)" stroke="none"> </tspan><tspan fill="rgb(0,0,0)" stroke="none">Mouse.X &lt; 1100)  y</tspan></tspan></tspan><tspan class="TextParagraph" font-family="Arial, sans-serif" font-size="318px" font-weight="400"><tspan class="TextPosition" x="12752" y="9139"><tspan fill="rgb(0,0,0)" stroke="none">Mouse (Mouse.Y &gt; 0 y</tspan></tspan></tspan><tspan class="TextParagraph" font-family="Arial, sans-serif" font-size="318px" font-weight="400"><tspan class="TextPosition" x="13178" y="9495"><tspan fill="rgb(0,0,0)" stroke="none"> </tspan><tspan fill="rgb(0,0,0)" stroke="none">Mouse.Y &lt; 640)</tspan></tspan></tspan></text>
      </g>
     </g>
     <g class="com.sun.star.drawing.ConnectorShape">
      <g id="id19">
       <path fill="none" stroke="rgb(0,0,0)" d="M 14350,6101 L 14350,6771"/>
       <path fill="rgb(0,0,0)" stroke="none" d="M 14350,7201 L 14500,6751 14200,6751 14350,7201 Z"/>
      </g>
     </g>
     <g class="com.sun.star.drawing.CustomShape">
      <g id="id20">
       <path fill="rgb(114,159,207)" stroke="none" d="M 13100,12801 L 14700,11901 16301,12801 14700,13701 13100,12801 13100,12801 Z M 13100,11901 L 13100,11901 Z M 16301,13702 L 16301,13702 Z"/>
       <path fill="none" stroke="rgb(52,101,175)" d="M 13100,12801 L 14700,11901 16301,12801 14700,13701 13100,12801 13100,12801 Z"/>
       <path fill="none" stroke="rgb(52,101,175)" d="M 13100,11901 L 13100,11901 Z"/>
       <path fill="none" stroke="rgb(52,101,175)" d="M 16301,13702 L 16301,13702 Z"/>
       <text class="TextShape"><tspan class="TextParagraph" font-family="Arial, sans-serif" font-size="318px" font-weight="400"><tspan class="TextPosition" x="13512" y="12911"><tspan fill="rgb(0,0,0)" stroke="none">SI X.Contar &lt;&gt; 0</tspan></tspan></tspan><tspan class="TextParagraph" font-family="Arial, sans-serif" font-size="318px" font-weight="400"><tspan class="TextPosition" x="14655" y="13267"><tspan fill="rgb(0,0,0)" stroke="none"> </tspan></tspan></tspan></text>
      </g>
     </g>
     <g class="com.sun.star.drawing.ConnectorShape">
      <g id="id21">
       <path fill="none" stroke="rgb(0,0,0)" d="M 16600,8851 L 17102,8851 17102,11051 14700,11051 14700,11471"/>
       <path fill="rgb(0,0,0)" stroke="none" d="M 14700,11901 L 14850,11451 14550,11451 14700,11901 Z"/>
      </g>
     </g>
     <g class="com.sun.star.drawing.CustomShape">
      <g id="id22">
       <path fill="rgb(114,159,207)" stroke="none" d="M 12500,16851 L 14750,15301 17001,16851 14750,18402 12500,16851 12500,16851 Z M 12500,15301 L 12500,15301 Z M 17001,18402 L 17001,18402 Z"/>
       <path fill="none" stroke="rgb(52,101,175)" d="M 12500,16851 L 14750,15301 17001,16851 14750,18402 12500,16851 12500,16851 Z"/>
       <path fill="none" stroke="rgb(52,101,175)" d="M 12500,15301 L 12500,15301 Z"/>
       <path fill="none" stroke="rgb(52,101,175)" d="M 17001,18402 L 17001,18402 Z"/>
       <text class="TextShape"><tspan class="TextParagraph" font-family="Arial, sans-serif" font-size="318px" font-weight="400"><tspan class="TextPosition" x="12934" y="16783"><tspan fill="rgb(0,0,0)" stroke="none"> </tspan><tspan fill="rgb(0,0,0)" stroke="none">Si Mouse.X &lt;&gt; X[Max</tspan><tspan fill="rgb(0,0,0)" stroke="none">] or</tspan></tspan></tspan><tspan class="TextParagraph" font-family="Arial, sans-serif" font-size="318px" font-weight="400"><tspan class="TextPosition" x="13269" y="17139"><tspan fill="rgb(0,0,0)" stroke="none">Mouse.Y &lt;&gt; Y[Max]  </tspan></tspan></tspan></text>
      </g>
     </g>
     <g class="com.sun.star.drawing.ConnectorShape">
      <g id="id23">
       <path fill="none" stroke="rgb(0,0,0)" d="M 16300,12801 L 16802,12801 16802,14502 14750,14502 14750,14871"/>
       <path fill="rgb(0,0,0)" stroke="none" d="M 14750,15301 L 14900,14851 14600,14851 14750,15301 Z"/>
      </g>
     </g>
     <g class="com.sun.star.drawing.ConnectorShape">
      <g id="id24">
       <path fill="none" stroke="rgb(0,0,0)" d="M 17000,16851 L 17502,16851 17502,20002 12410,20002 12410,21346"/>
       <path fill="rgb(0,0,0)" stroke="none" d="M 12410,21776 L 12560,21326 12260,21326 12410,21776 Z"/>
      </g>
     </g>
     <g class="com.sun.star.drawing.ConnectorShape">
      <g id="id25">
       <path fill="none" stroke="rgb(0,0,0)" d="M 13100,12801 L 11950,12801 11950,21171"/>
       <path fill="rgb(0,0,0)" stroke="none" d="M 11950,21601 L 12100,21151 11800,21151 11950,21601 Z"/>
      </g>
     </g>
     <g class="com.sun.star.drawing.ConnectorShape">
      <g id="id26">
       <path fill="none" stroke="rgb(0,0,0)" d="M 4650,4401 L 4650,3930"/>
       <path fill="rgb(0,0,0)" stroke="none" d="M 4650,3500 L 4500,3950 4800,3950 4650,3500 Z"/>
      </g>
     </g>
     <g class="com.sun.star.drawing.CustomShape">
      <g id="id27">
       <path fill="rgb(114,159,207)" stroke="none" d="M 15900,21101 L 20101,21101 20101,22102 15900,22102 15900,21101 Z M 15900,21101 L 15900,21101 Z M 20101,22102 L 20101,22102 Z"/>
       <path fill="none" stroke="rgb(52,101,175)" d="M 15900,21101 L 20101,21101 20101,22102 15900,22102 15900,21101 Z"/>
       <path fill="none" stroke="rgb(52,101,175)" d="M 15900,21101 L 15900,21101 Z"/>
       <path fill="none" stroke="rgb(52,101,175)" d="M 20101,22102 L 20101,22102 Z"/>
       <path fill="rgb(114,159,207)" stroke="none" d="M 16722,21101 L 16722,22102 16722,21101 Z M 15900,21101 L 15900,21101 Z M 20101,22102 L 20101,22102 Z"/>
       <path fill="none" stroke="rgb(52,101,175)" d="M 16722,21101 L 16722,22102"/>
       <path fill="none" stroke="rgb(52,101,175)" d="M 15900,21101 L 15900,21101 Z"/>
       <path fill="none" stroke="rgb(52,101,175)" d="M 20101,22102 L 20101,22102 Z"/>
       <path fill="rgb(114,159,207)" stroke="none" d="M 15900,21297 L 20101,21297 15900,21297 Z M 15900,21101 L 15900,21101 Z M 20101,22102 L 20101,22102 Z"/>
       <path fill="none" stroke="rgb(52,101,175)" d="M 15900,21297 L 20101,21297"/>
       <path fill="none" stroke="rgb(52,101,175)" d="M 15900,21101 L 15900,21101 Z"/>
       <path fill="none" stroke="rgb(52,101,175)" d="M 20101,22102 L 20101,22102 Z"/>
       <text class="TextShape"><tspan class="TextParagraph" font-family="Arial, sans-serif" font-size="318px" font-weight="400"><tspan class="TextPosition" x="17452" y="21632"><tspan fill="rgb(0,0,0)" stroke="none">Coordenadas</tspan></tspan></tspan><tspan class="TextParagraph" font-family="Arial, sans-serif" font-size="318px" font-weight="400"><tspan class="TextPosition" x="16834" y="21988"><tspan fill="rgb(0,0,0)" stroke="none"> </tspan><tspan fill="rgb(0,0,0)" stroke="none">X[Max+1] = Mouse.X </tspan></tspan></tspan></text>
      </g>
     </g>
     <g class="com.sun.star.drawing.CustomShape">
      <g id="id28">
       <path fill="rgb(114,159,207)" stroke="none" d="M 15900,22301 L 20101,22301 20101,23302 15900,23302 15900,22301 Z M 15900,22301 L 15900,22301 Z M 20101,23302 L 20101,23302 Z"/>
       <path fill="none" stroke="rgb(52,101,175)" d="M 15900,22301 L 20101,22301 20101,23302 15900,23302 15900,22301 Z"/>
       <path fill="none" stroke="rgb(52,101,175)" d="M 15900,22301 L 15900,22301 Z"/>
       <path fill="none" stroke="rgb(52,101,175)" d="M 20101,23302 L 20101,23302 Z"/>
       <path fill="rgb(114,159,207)" stroke="none" d="M 16722,22301 L 16722,23302 16722,22301 Z M 15900,22301 L 15900,22301 Z M 20101,23302 L 20101,23302 Z"/>
       <path fill="none" stroke="rgb(52,101,175)" d="M 16722,22301 L 16722,23302"/>
       <path fill="none" stroke="rgb(52,101,175)" d="M 15900,22301 L 15900,22301 Z"/>
       <path fill="none" stroke="rgb(52,101,175)" d="M 20101,23302 L 20101,23302 Z"/>
       <path fill="rgb(114,159,207)" stroke="none" d="M 15900,22497 L 20101,22497 15900,22497 Z M 15900,22301 L 15900,22301 Z M 20101,23302 L 20101,23302 Z"/>
       <path fill="none" stroke="rgb(52,101,175)" d="M 15900,22497 L 20101,22497"/>
       <path fill="none" stroke="rgb(52,101,175)" d="M 15900,22301 L 15900,22301 Z"/>
       <path fill="none" stroke="rgb(52,101,175)" d="M 20101,23302 L 20101,23302 Z"/>
       <text class="TextShape"><tspan class="TextParagraph" font-family="Arial, sans-serif" font-size="318px" font-weight="400"><tspan class="TextPosition" x="17452" y="22832"><tspan fill="rgb(0,0,0)" stroke="none">Coordenadas</tspan></tspan></tspan><tspan class="TextParagraph" font-family="Arial, sans-serif" font-size="318px" font-weight="400"><tspan class="TextPosition" x="16836" y="23188"><tspan fill="rgb(0,0,0)" stroke="none"> </tspan><tspan fill="rgb(0,0,0)" stroke="none">Y[Max+1] = Mouse.Y </tspan></tspan></tspan></text>
      </g>
     </g>
     <g class="com.sun.star.drawing.CustomShape">
      <g id="id29">
       <path fill="rgb(114,159,207)" stroke="none" d="M 11950,21601 C 12318,21601 12600,21861 12600,22201 12600,22541 12318,22801 11950,22801 11582,22801 11300,22541 11300,22201 11300,21861 11582,21601 11950,21601 Z M 11300,21601 L 11300,21601 Z M 12601,22802 L 12601,22802 Z"/>
       <path fill="none" stroke="rgb(52,101,175)" d="M 11950,21601 C 12318,21601 12600,21861 12600,22201 12600,22541 12318,22801 11950,22801 11582,22801 11300,22541 11300,22201 11300,21861 11582,21601 11950,21601 Z"/>
       <path fill="none" stroke="rgb(52,101,175)" d="M 11300,21601 L 11300,21601 Z"/>
       <path fill="none" stroke="rgb(52,101,175)" d="M 12601,22802 L 12601,22802 Z"/>
       <path fill="rgb(114,159,207)" stroke="none" d="M 11486,21773 L 12414,22629 11486,21773 Z M 11300,21601 L 11300,21601 Z M 12601,22802 L 12601,22802 Z"/>
       <path fill="none" stroke="rgb(52,101,175)" d="M 11486,21773 L 12414,22629"/>
       <path fill="none" stroke="rgb(52,101,175)" d="M 11300,21601 L 11300,21601 Z"/>
       <path fill="none" stroke="rgb(52,101,175)" d="M 12601,22802 L 12601,22802 Z"/>
       <path fill="rgb(114,159,207)" stroke="none" d="M 11486,22629 L 12414,21773 11486,22629 Z M 11300,21601 L 11300,21601 Z M 12601,22802 L 12601,22802 Z"/>
       <path fill="none" stroke="rgb(52,101,175)" d="M 11486,22629 L 12414,21773"/>
       <path fill="none" stroke="rgb(52,101,175)" d="M 11300,21601 L 11300,21601 Z"/>
       <path fill="none" stroke="rgb(52,101,175)" d="M 12601,22802 L 12601,22802 Z"/>
      </g>
     </g>
     <g class="com.sun.star.drawing.ConnectorShape">
      <g id="id30">
       <path fill="none" stroke="rgb(0,0,0)" d="M 12410,21776 L 15471,21623"/>
       <path fill="rgb(0,0,0)" stroke="none" d="M 15900,21601 L 15443,21474 15458,21773 15900,21601 Z"/>
      </g>
     </g>
     <g class="com.sun.star.drawing.ConnectorShape">
      <g id="id31">
       <path fill="none" stroke="rgb(0,0,0)" d="M 12410,22626 L 15471,22779"/>
       <path fill="rgb(0,0,0)" stroke="none" d="M 15900,22801 L 15458,22629 15443,22928 15900,22801 Z"/>
      </g>
     </g>
     <g class="com.sun.star.drawing.CustomShape">
      <g id="id32">
       <path fill="rgb(174,167,159)" stroke="none" d="M 8350,20500 L 3799,20500 3799,23500 8350,23500 8350,20500 Z M 8350,20500 L 8350,20500 Z M 3799,23500 L 3799,23500 Z"/>
       <path fill="none" stroke="rgb(0,0,0)" d="M 8350,20500 L 3799,20500 3799,23500 8350,23500 8350,20500 Z"/>
       <path fill="none" stroke="rgb(0,0,0)" d="M 8350,20500 L 8350,20500 Z"/>
       <path fill="none" stroke="rgb(0,0,0)" d="M 3799,23500 L 3799,23500 Z"/>
       <path fill="rgb(174,167,159)" stroke="none" d="M 11099,22301 L 9108,21055 11099,22301 Z M 8350,20500 L 8350,20500 Z M 3799,23500 L 3799,23500 Z"/>
       <path fill="none" stroke="rgb(0,0,0)" d="M 11099,22301 L 9108,21055"/>
       <path fill="none" stroke="rgb(0,0,0)" d="M 8350,20500 L 8350,20500 Z"/>
       <path fill="none" stroke="rgb(0,0,0)" d="M 3799,23500 L 3799,23500 Z"/>
       <path fill="rgb(174,167,159)" stroke="none" d="M 9108,21055 L 8599,21055 9108,21055 Z M 8350,20500 L 8350,20500 Z M 3799,23500 L 3799,23500 Z"/>
       <path fill="none" stroke="rgb(0,0,0)" d="M 9108,21055 L 8599,21055"/>
       <path fill="none" stroke="rgb(0,0,0)" d="M 8350,20500 L 8350,20500 Z"/>
       <path fill="none" stroke="rgb(0,0,0)" d="M 3799,23500 L 3799,23500 Z"/>
       <text class="TextShape"><tspan class="TextParagraph" font-family="Arial, sans-serif" font-size="318px" font-weight="400"><tspan class="TextPosition" x="3837" y="21220"><tspan fill="rgb(0,0,0)" stroke="none">Agregar el valor Mouse.X en el </tspan></tspan></tspan><tspan class="TextParagraph" font-family="Arial, sans-serif" font-size="318px" font-weight="400"><tspan class="TextPosition" x="3969" y="21576"><tspan fill="rgb(0,0,0)" stroke="none">Arreglo de las coordenadas X</tspan></tspan></tspan><tspan class="TextParagraph" font-family="Arial, sans-serif" font-size="318px" font-weight="400"><tspan class="TextPosition" x="6030" y="21932"><tspan fill="rgb(0,0,0)" stroke="none"> </tspan></tspan></tspan><tspan class="TextParagraph" font-family="Arial, sans-serif" font-size="318px" font-weight="400"><tspan class="TextPosition" x="3840" y="22288"><tspan fill="rgb(0,0,0)" stroke="none">Agregar el valor Mouse.Y en el </tspan></tspan></tspan><tspan class="TextParagraph" font-family="Arial, sans-serif" font-size="318px" font-weight="400"><tspan class="TextPosition" x="3931" y="22644"><tspan fill="rgb(0,0,0)" stroke="none">Arreglo de las coordenadas Y </tspan></tspan></tspan></text>
      </g>
     </g>
     <g class="com.sun.star.drawing.CustomShape">
      <g id="id33">
       <path fill="rgb(114,159,207)" stroke="none" d="M 4650,2500 C 4962,2500 5200,2717 5200,3000 5200,3283 4962,3500 4650,3500 4338,3500 4100,3283 4100,3000 4100,2717 4338,2500 4650,2500 Z M 4100,2500 L 4100,2500 Z M 5201,3501 L 5201,3501 Z"/>
       <path fill="none" stroke="rgb(52,101,175)" d="M 4650,2500 C 4962,2500 5200,2717 5200,3000 5200,3283 4962,3500 4650,3500 4338,3500 4100,3283 4100,3000 4100,2717 4338,2500 4650,2500 Z"/>
       <path fill="none" stroke="rgb(52,101,175)" d="M 4100,2500 L 4100,2500 Z"/>
       <path fill="none" stroke="rgb(52,101,175)" d="M 5201,3501 L 5201,3501 Z"/>
       <text class="TextShape"><tspan class="TextParagraph" font-family="Arial, sans-serif" font-size="635px" font-weight="400"><tspan class="TextPosition" x="4474" y="3221"><tspan fill="rgb(0,0,0)" stroke="none">1</tspan></tspan></tspan></text>
      </g>
     </g>
     <g class="com.sun.star.drawing.ConnectorShape">
      <g id="id34">
       <path fill="none" stroke="rgb(0,0,0)" d="M 12500,16851 L 11929,16879"/>
       <path fill="rgb(0,0,0)" stroke="none" d="M 11500,16900 L 11957,17028 11942,16728 11500,16900 Z"/>
      </g>
     </g>
     <g class="com.sun.star.drawing.ConnectorShape">
      <g id="id35">
       <path fill="none" stroke="rgb(0,0,0)" d="M 12100,8851 L 11629,8877"/>
       <path fill="rgb(0,0,0)" stroke="none" d="M 11200,8900 L 11657,9025 11641,8726 11200,8900 Z"/>
      </g>
     </g>
     <g class="com.sun.star.drawing.ConnectorShape">
      <g id="id36">
       <path fill="none" stroke="rgb(0,0,0)" d="M 2600,10751 L 2229,10774"/>
       <path fill="rgb(0,0,0)" stroke="none" d="M 1800,10800 L 2258,10922 2240,10623 1800,10800 Z"/>
      </g>
     </g>
     <g class="com.sun.star.drawing.CustomShape">
      <g id="id37">
       <path fill="rgb(114,159,207)" stroke="none" d="M 1250,10300 C 1562,10300 1800,10517 1800,10800 1800,11083 1562,11300 1250,11300 938,11300 700,11083 700,10800 700,10517 938,10300 1250,10300 Z M 700,10300 L 700,10300 Z M 1801,11301 L 1801,11301 Z"/>
       <path fill="none" stroke="rgb(52,101,175)" d="M 1250,10300 C 1562,10300 1800,10517 1800,10800 1800,11083 1562,11300 1250,11300 938,11300 700,11083 700,10800 700,10517 938,10300 1250,10300 Z"/>
       <path fill="none" stroke="rgb(52,101,175)" d="M 700,10300 L 700,10300 Z"/>
       <path fill="none" stroke="rgb(52,101,175)" d="M 1801,11301 L 1801,11301 Z"/>
       <text class="TextShape"><tspan class="TextParagraph" font-family="Arial, sans-serif" font-size="635px" font-weight="400"><tspan class="TextPosition" x="1074" y="11021"><tspan fill="rgb(0,0,0)" stroke="none">1</tspan></tspan></tspan></text>
      </g>
     </g>
     <g class="com.sun.star.drawing.ConnectorShape">
      <g id="id38">
       <path fill="none" stroke="rgb(0,0,0)" d="M 2400,6051 L 2129,6070"/>
       <path fill="rgb(0,0,0)" stroke="none" d="M 1700,6100 L 2159,6218 2138,5919 1700,6100 Z"/>
      </g>
     </g>
     <g class="com.sun.star.drawing.CustomShape">
      <g id="id39">
       <path fill="rgb(114,159,207)" stroke="none" d="M 1150,5600 C 1462,5600 1700,5817 1700,6100 1700,6383 1462,6600 1150,6600 838,6600 600,6383 600,6100 600,5817 838,5600 1150,5600 Z M 600,5600 L 600,5600 Z M 1701,6601 L 1701,6601 Z"/>
       <path fill="none" stroke="rgb(52,101,175)" d="M 1150,5600 C 1462,5600 1700,5817 1700,6100 1700,6383 1462,6600 1150,6600 838,6600 600,6383 600,6100 600,5817 838,5600 1150,5600 Z"/>
       <path fill="none" stroke="rgb(52,101,175)" d="M 600,5600 L 600,5600 Z"/>
       <path fill="none" stroke="rgb(52,101,175)" d="M 1701,6601 L 1701,6601 Z"/>
       <text class="TextShape"><tspan class="TextParagraph" font-family="Arial, sans-serif" font-size="635px" font-weight="400"><tspan class="TextPosition" x="974" y="6321"><tspan fill="rgb(0,0,0)" stroke="none">1</tspan></tspan></tspan></text>
      </g>
     </g>
     <g class="com.sun.star.drawing.CustomShape">
      <g id="id40">
       <path fill="rgb(114,159,207)" stroke="none" d="M 10650,8400 C 10962,8400 11200,8617 11200,8900 11200,9183 10962,9400 10650,9400 10338,9400 10100,9183 10100,8900 10100,8617 10338,8400 10650,8400 Z M 10100,8400 L 10100,8400 Z M 11201,9401 L 11201,9401 Z"/>
       <path fill="none" stroke="rgb(52,101,175)" d="M 10650,8400 C 10962,8400 11200,8617 11200,8900 11200,9183 10962,9400 10650,9400 10338,9400 10100,9183 10100,8900 10100,8617 10338,8400 10650,8400 Z"/>
       <path fill="none" stroke="rgb(52,101,175)" d="M 10100,8400 L 10100,8400 Z"/>
       <path fill="none" stroke="rgb(52,101,175)" d="M 11201,9401 L 11201,9401 Z"/>
       <text class="TextShape"><tspan class="TextParagraph" font-family="Arial, sans-serif" font-size="635px" font-weight="400"><tspan class="TextPosition" x="10474" y="9121"><tspan fill="rgb(0,0,0)" stroke="none">1</tspan></tspan></tspan></text>
      </g>
     </g>
     <g class="com.sun.star.drawing.CustomShape">
      <g id="id41">
       <path fill="rgb(114,159,207)" stroke="none" d="M 10950,16400 C 11262,16400 11500,16617 11500,16900 11500,17183 11262,17400 10950,17400 10638,17400 10400,17183 10400,16900 10400,16617 10638,16400 10950,16400 Z M 10400,16400 L 10400,16400 Z M 11501,17401 L 11501,17401 Z"/>
       <path fill="none" stroke="rgb(52,101,175)" d="M 10950,16400 C 11262,16400 11500,16617 11500,16900 11500,17183 11262,17400 10950,17400 10638,17400 10400,17183 10400,16900 10400,16617 10638,16400 10950,16400 Z"/>
       <path fill="none" stroke="rgb(52,101,175)" d="M 10400,16400 L 10400,16400 Z"/>
       <path fill="none" stroke="rgb(52,101,175)" d="M 11501,17401 L 11501,17401 Z"/>
       <text class="TextShape"><tspan class="TextParagraph" font-family="Arial, sans-serif" font-size="635px" font-weight="400"><tspan class="TextPosition" x="10774" y="17121"><tspan fill="rgb(0,0,0)" stroke="none">1</tspan></tspan></tspan></text>
      </g>
     </g>
     <g class="com.sun.star.drawing.ConnectorShape">
      <g id="id42">
       <path fill="none" stroke="rgb(0,0,0)" d="M 11950,22801 L 11950,23770"/>
       <path fill="rgb(0,0,0)" stroke="none" d="M 11950,24200 L 12100,23750 11800,23750 11950,24200 Z"/>
      </g>
     </g>
     <g class="com.sun.star.drawing.CustomShape">
      <g id="id43">
       <path fill="rgb(51,51,51)" stroke="none" d="M 11950,25200 L 10200,25200 10200,24200 13700,24200 13700,25200 11950,25200 Z"/>
       <path fill="none" stroke="rgb(52,101,175)" d="M 11950,25200 L 10200,25200 10200,24200 13700,24200 13700,25200 11950,25200 Z"/>
       <text class="TextShape"><tspan class="TextParagraph" font-family="Arial, sans-serif" font-size="318px" font-weight="400"><tspan class="TextPosition" x="11258" y="24810"><tspan fill="rgb(255,255,255)" stroke="none">Refrescar</tspan></tspan></tspan></text>
      </g>
     </g>
     <g class="com.sun.star.drawing.CustomShape">
      <g id="id44">
       <path fill="rgb(174,167,159)" stroke="none" d="M 15750,25099 L 18750,25099 18750,28099 15750,28099 15750,25099 Z M 15750,25099 L 15750,25099 Z M 18750,28099 L 18750,28099 Z"/>
       <path fill="none" stroke="rgb(52,101,175)" d="M 15750,25099 L 18750,25099 18750,28099 15750,28099 15750,25099 Z"/>
       <path fill="none" stroke="rgb(52,101,175)" d="M 15750,25099 L 15750,25099 Z"/>
       <path fill="none" stroke="rgb(52,101,175)" d="M 18750,28099 L 18750,28099 Z"/>
       <path fill="rgb(174,167,159)" stroke="none" d="M 13800,24800 L 15250,25654 13800,24800 Z M 15750,25099 L 15750,25099 Z M 18750,28099 L 18750,28099 Z"/>
       <path fill="none" stroke="rgb(52,101,175)" d="M 13800,24800 L 15250,25654"/>
       <path fill="none" stroke="rgb(52,101,175)" d="M 15750,25099 L 15750,25099 Z"/>
       <path fill="none" stroke="rgb(52,101,175)" d="M 18750,28099 L 18750,28099 Z"/>
       <path fill="rgb(174,167,159)" stroke="none" d="M 15250,25654 L 15500,25654 15250,25654 Z M 15750,25099 L 15750,25099 Z M 18750,28099 L 18750,28099 Z"/>
       <path fill="none" stroke="rgb(52,101,175)" d="M 15250,25654 L 15500,25654"/>
       <path fill="none" stroke="rgb(52,101,175)" d="M 15750,25099 L 15750,25099 Z"/>
       <path fill="none" stroke="rgb(52,101,175)" d="M 18750,28099 L 18750,28099 Z"/>
       <text class="TextShape"><tspan class="TextParagraph" font-family="Arial, sans-serif" font-size="353px" font-weight="400"><tspan class="TextPosition" x="15806" y="26523"><tspan fill="rgb(0,0,0)" stroke="none">Ejecuta el proceso</tspan></tspan></tspan><tspan class="TextParagraph" font-family="Arial, sans-serif" font-size="353px" font-weight="400"><tspan class="TextPosition" x="16109" y="26917"><tspan fill="rgb(0,0,0)" stroke="none"> </tspan><tspan fill="rgb(0,0,0)" stroke="none">de graficacion</tspan></tspan></tspan></text>
      </g>
     </g>
     <g class="com.sun.star.drawing.CustomShape">
      <g id="id45">
       <path fill="rgb(174,167,159)" stroke="none" d="M 11299,9800 L 7899,9800 7899,12800 11299,12800 11299,9800 Z M 11299,9800 L 11299,9800 Z M 7899,12800 L 7899,12800 Z"/>
       <path fill="none" stroke="rgb(52,101,175)" d="M 11299,9800 L 7899,9800 7899,12800 11299,12800 11299,9800 Z"/>
       <path fill="none" stroke="rgb(52,101,175)" d="M 11299,9800 L 11299,9800 Z"/>
       <path fill="none" stroke="rgb(52,101,175)" d="M 7899,12800 L 7899,12800 Z"/>
       <path fill="rgb(174,167,159)" stroke="none" d="M 13549,12001 L 11865,10355 13549,12001 Z M 11299,9800 L 11299,9800 Z M 7899,12800 L 7899,12800 Z"/>
       <path fill="none" stroke="rgb(52,101,175)" d="M 13549,12001 L 11865,10355"/>
       <path fill="none" stroke="rgb(52,101,175)" d="M 11299,9800 L 11299,9800 Z"/>
       <path fill="none" stroke="rgb(52,101,175)" d="M 7899,12800 L 7899,12800 Z"/>
       <path fill="rgb(174,167,159)" stroke="none" d="M 11865,10355 L 11549,10355 11865,10355 Z M 11299,9800 L 11299,9800 Z M 7899,12800 L 7899,12800 Z"/>
       <path fill="none" stroke="rgb(52,101,175)" d="M 11865,10355 L 11549,10355"/>
       <path fill="none" stroke="rgb(52,101,175)" d="M 11299,9800 L 11299,9800 Z"/>
       <path fill="none" stroke="rgb(52,101,175)" d="M 7899,12800 L 7899,12800 Z"/>
       <text class="TextShape"><tspan class="TextParagraph" font-family="Arial, sans-serif" font-size="318px" font-weight="400"><tspan class="TextPosition" x="8985" y="10164"><tspan fill="rgb(0,0,0)" stroke="none">Verifica, </tspan></tspan></tspan><tspan class="TextParagraph" font-family="Arial, sans-serif" font-size="318px" font-weight="400"><tspan class="TextPosition" x="9046" y="10520"><tspan fill="rgb(0,0,0)" stroke="none">si no es</tspan></tspan></tspan><tspan class="TextParagraph" font-family="Arial, sans-serif" font-size="318px" font-weight="400"><tspan class="TextPosition" x="8659" y="10876"><tspan fill="rgb(0,0,0)" stroke="none"> </tspan><tspan fill="rgb(0,0,0)" stroke="none">primer punto</tspan></tspan></tspan><tspan class="TextParagraph" font-family="Arial, sans-serif" font-size="318px" font-weight="400"><tspan class="TextPosition" x="8638" y="11232"><tspan fill="rgb(0,0,0)" stroke="none"> </tspan><tspan fill="rgb(0,0,0)" stroke="none">que se va ha</tspan></tspan></tspan><tspan class="TextParagraph" font-family="Arial, sans-serif" font-size="318px" font-weight="400"><tspan class="TextPosition" x="8898" y="11588"><tspan fill="rgb(0,0,0)" stroke="none"> </tspan><tspan fill="rgb(0,0,0)" stroke="none">Agregar /</tspan></tspan></tspan><tspan class="TextParagraph" font-family="Arial, sans-serif" font-size="318px" font-weight="400"><tspan class="TextPosition" x="8104" y="11944"><tspan fill="rgb(0,0,0)" stroke="none">Evita que se inserten</tspan></tspan></tspan><tspan class="TextParagraph" font-family="Arial, sans-serif" font-size="318px" font-weight="400"><tspan class="TextPosition" x="9074" y="12300"><tspan fill="rgb(0,0,0)" stroke="none"> </tspan><tspan fill="rgb(0,0,0)" stroke="none">puntos</tspan></tspan></tspan><tspan class="TextParagraph" font-family="Arial, sans-serif" font-size="318px" font-weight="400"><tspan class="TextPosition" x="8720" y="12656"><tspan fill="rgb(0,0,0)" stroke="none"> </tspan><tspan fill="rgb(0,0,0)" stroke="none">Encimados.</tspan></tspan></tspan></text>
      </g>
     </g>
    </g>
   </g>
  </g>
 </g>
</svg>